<svg id="Layer_1" data-name="Layer 1" xmlns="http://www.w3.org/2000/svg" xmlns:xlink="http://www.w3.org/1999/xlink" viewBox="0 0 104.83 90.87"><defs><style>.cls-1{fill:#f9f9fa;fill-opacity:0.9;}.cls-2{stroke-miterlimit:10;stroke-opacity:0.95;stroke-width:3px;fill:url(#linear-gradient);stroke:url(#linear-gradient-2);}.cls-3{stroke-width:0.25px;fill:url(#linear-gradient-3);stroke:url(#linear-gradient-4);}</style><linearGradient id="linear-gradient" x1="253.96" y1="256.62" x2="177.94" y2="300.51" gradientUnits="userSpaceOnUse"><stop offset="0" stop-color="#0099cd"/><stop offset="0.34" stop-color="#2c60aa"/><stop offset="0.48" stop-color="#1e4593"/><stop offset="0.59" stop-color="#243e90"/><stop offset="0.86" stop-color="#0f122a"/><stop offset="1"/></linearGradient><linearGradient id="linear-gradient-2" x1="255.26" y1="255.87" x2="176.64" y2="301.26" xlink:href="#linear-gradient"/><linearGradient id="linear-gradient-3" x1="240.79" y1="264.62" x2="193.73" y2="291.79" xlink:href="#linear-gradient"/><linearGradient id="linear-gradient-4" x1="240.92" y1="264.54" x2="193.62" y2="291.85" xlink:href="#linear-gradient"/></defs><title>newlogo</title><g id="g929"><path id="path59-5-3-36" class="cls-1" d="M192.19,237l-24.11,41.52,24.11,41.52h47.57l24.11-41.52L239.76,237Z" transform="translate(-163.54 -233.13)"/><path id="path59-0" class="cls-2" d="M190.78,234.63l-25.51,43.94,25.51,43.94h50.33l25.51-43.94-25.51-43.94Zm1.4,2.42h47.57l4.4,7.58-3.37,7.68,8.37.93.69,1.19-3.38,7.71,8.4.93.68,1.17L252.16,272l8.41.93,3.3,5.68-24.11,41.52H192.19l-24.11-41.52Z" transform="translate(-163.54 -233.13)"/><g id="text927-6"><path id="path1143" class="cls-3" d="M216.53,305.93a24.8,24.8,0,0,1-10.14-2.08,25.35,25.35,0,0,1-8.22-5.79,27.37,27.37,0,0,1-5.5-8.74,29,29,0,0,1-2-10.82,29.53,29.53,0,0,1,1.86-10.5,26.34,26.34,0,0,1,5.34-8.74,24.53,24.53,0,0,1,8.42-6,27,27,0,0,1,11-2.18,33,33,0,0,1,13.7,3,26,26,0,0,1,5.82,3.62l-4.86,8a19.17,19.17,0,0,0-6.75-4,22.52,22.52,0,0,0-7.78-1.44,15.8,15.8,0,0,0-6.69,1.34,13.47,13.47,0,0,0-4.86,3.71,16.6,16.6,0,0,0-3,5.63,24.6,24.6,0,0,0,.13,14.46,17.9,17.9,0,0,0,3.2,5.79,14.57,14.57,0,0,0,4.83,3.74,13.86,13.86,0,0,0,6,1.31,14.76,14.76,0,0,0,4.93-.83,14.1,14.1,0,0,0,4.26-2.4,11.69,11.69,0,0,0,2.94-3.62,9.65,9.65,0,0,0,1.09-4.54v-.8H216.4v-8h24.42v8a19.34,19.34,0,0,1-2,8.83,21.48,21.48,0,0,1-5.44,6.88,26.16,26.16,0,0,1-16.83,6Z" transform="translate(-163.54 -233.13)"/></g></g></svg>